<svg xmlns="http://www.w3.org/2000/svg" width="24" height="24" viewBox="0 0 24 24"><path d="m24 4.3v0.5c-1.1 0-1.7 0.6-2.1 1.5-0.9 2.2-3.9 9-5.8 13.4h-0.5l-3.1-7.2c-1.2 2.4-2.6 4.9-3.7 7.2h-0.6c-1.8-4.1-3.6-8.2-5.4-12.3-0.4-1-1.9-2.7-2.8-2.6v-0.5h6v0.5c-0.7 0-2 0.4-1.6 1.2 0.8 1.9 3.9 9 4.7 10.8 0.6-1.1 2.2-4.1 2.8-5.4-0.5-1.1-2.2-5-2.7-6-0.4-0.6-1.4-0.6-2.1-0.6v-0.6h5.3v0.5c-0.7 0-1.4 0.3-1.1 1 0.7 1.5 1.1 2.6 1.8 3.9 0.3-0.4 1.4-2.6 1.9-3.7 0.3-0.8-0.1-1.1-1.4-1.1v-0.5h4.6v0.5c-0.8 0-1.7 0.5-2.2 1.2l-2.2 4.6c0.2 0.6 2.4 5.4 2.6 5.9l4.6-10.6c-0.3-0.9-1.4-1.1-1.8-1.1v-0.6l4.8 0.1c-0.1 0 0 0 0 0z"/></svg>